<svg xmlns="http://www.w3.org/2000/svg" viewBox="0 0 512 512"><path d="M170.991 283.153C137.845 299.728 64.142 373.6 33.083 441.072c-3.312 7.195-.617 15.758 6.263 19.685 48.015 27.407 167.804 23.111 224.694 13.003 23.381-52.235 4.501-199.788 4.501-199.788l-97.55 9.181z" fill="#bd4568"/><path d="M61.626 472.594a15.402 15.402 0 01-9.883-3.579c-6.564-5.463-7.457-15.213-1.993-21.777 27.654-33.227 52.162-39.648 73.783-45.313 15.905-4.167 29.64-7.766 45.06-22.576 6.161-5.915 15.949-5.718 21.863.44 5.916 6.159 5.719 15.948-.44 21.864-21.222 20.383-41.103 25.593-58.645 30.189-19.606 5.137-36.538 9.573-57.852 35.18a15.43 15.43 0 01-11.893 5.572z" fill="#eda751"/><path d="M58.992 436.991a170.01 170.01 0 00-9.243 10.248c-5.464 6.564-4.571 16.314 1.993 21.777a15.4 15.4 0 009.883 3.579c4.434 0 8.836-1.897 11.893-5.571a137.415 137.415 0 018.599-9.446c-5.736-9.678-14.931-17.134-23.125-20.587z" fill="#fcd79d"/><g fill="#eda751"><path d="M147.036 511.635c-8.912 0-17.521-4.829-21.94-13.273-6.336-12.106-1.659-27.056 10.447-33.393 28.199-14.76 42.338-33.368 54.812-49.787a876.64 876.64 0 014.13-5.407c8.351-10.813 23.89-12.811 34.703-4.459 10.814 8.352 12.81 23.889 4.459 34.703-1.274 1.65-2.567 3.352-3.893 5.097-14.048 18.491-33.289 43.814-71.266 63.692a24.619 24.619 0 01-11.452 2.827zM267.041 512c-7.107 0-14.159-3.046-19.053-8.943-8.724-10.515-7.273-26.113 3.241-34.838 20.329-16.867 16.206-40.008 14.552-43.865-5.384-12.558.431-27.103 12.99-32.488 12.559-5.384 27.104.432 32.488 12.99 9.518 22.201 10.216 69.373-28.432 101.442A24.64 24.64 0 01267.041 512zM335.653 365.049c-12.263 0-22.905-9.109-24.507-21.594-1.74-13.553 7.838-25.949 21.389-27.688 17.321-2.222 70.373-31.069 101.366-55.118 10.796-8.377 26.337-6.415 34.714 4.38 8.375 10.795 6.415 26.337-4.38 34.713-30.933 24.001-93.388 60.995-125.401 65.103a24.848 24.848 0 01-3.181.204z"/></g><g fill="#a35f00"><path d="M381.379 350.217c.338-17.327-3.093-34.355-10.022-50.24-16.586 8.645-31.182 14.809-38.822 15.79-13.552 1.739-23.129 14.135-21.389 27.688 1.602 12.485 12.245 21.594 24.507 21.594 1.049 0 2.113-.066 3.181-.204 11.296-1.449 26.389-7.004 42.545-14.628zM278.771 391.866c-12.559 5.384-18.374 19.93-12.99 32.488 1.654 3.857 5.777 26.998-14.552 43.865a24.807 24.807 0 00-3.952 4.142c.78.013 1.561.037 2.339.037 22.753 0 44.928-5.508 64.476-15.793 4.892-20.332 2.328-39.712-2.833-51.749-5.384-12.557-19.929-18.373-32.488-12.99zM229.189 405.317c-10.813-8.352-26.352-6.354-34.703 4.459a838.768 838.768 0 00-4.13 5.407c-7.159 9.422-14.872 19.565-25.47 29.289 13.884 10.445 29.768 18.206 46.893 22.865 7.102-7.914 12.884-15.516 17.976-22.219 1.326-1.745 2.619-3.447 3.893-5.097 8.351-10.815 6.355-26.353-4.459-34.704zM168.592 379.349c-14.126 13.568-26.84 17.727-41.103 21.533a129.243 129.243 0 0015.123 22.459 133.44 133.44 0 003.735 4.267c13.598-4.375 28.28-11.175 43.667-25.954 6.158-5.916 6.355-15.704.44-21.864-5.913-6.158-15.701-6.356-21.862-.441z" opacity=".2"/></g><ellipse transform="rotate(-82.807 247.377 346.229)" cx="247.369" cy="346.218" rx="106.037" ry="114.106" fill="#fcd690"/><g fill="#ff91ab"><path d="M247.709 429.085c-.919 0-1.841-.032-2.764-.098-12.04-.853-21.813-7.239-26.816-17.519a7.5 7.5 0 013.463-10.026 7.498 7.498 0 0110.025 3.462c3.374 6.934 9.686 8.787 14.389 9.12 7.133.513 14.746-2.401 17.693-6.763a7.501 7.501 0 0112.428 8.4c-5.557 8.222-16.732 13.424-28.418 13.424z"/><circle cx="284.401" cy="377.75" r="42.937"/></g><path d="M217.73 448.215c-47.451-40.493-22.635-108.087-10.011-137.424l8.48-67.223c-42.958 10.667-76.496 44.573-82.021 88.368-6.671 52.883 29.801 101.944 83.552 116.279z" opacity=".15" fill="#c17a00"/><path d="M144.533 271.819c-18.143 2.152-29.456 47.092 9.175 50.359 52.761 4.461 106.94 10.438 129.792 24.609 4.01 2.487 9.009 2.496 13.139.215 21.706-11.986 60.284-11.155 72.69-13.073 28.737-4.443 15.33-49.419-2.946-48.403-18.276 1.016-221.85-13.707-221.85-13.707z" fill="#bd4568"/><path d="M201.551 156.944c23.313-17.497 39.906-48.095 10.98-96.231C183.376 12.196 136.821-2.098 99.742.241c-9.141.576-17.11 6.557-20.217 15.174-12.603 34.95-11.882 83.645 26.559 125.191 38.14 41.221 72.155 33.835 95.467 16.338z" fill="#eda751"/><path d="M77.746 20.771c-10.648 34.458-8.18 80.368 28.337 119.835 33.059 35.729 63.012 34.932 85.59 22.694C182.19 60.479 118.021 29.864 77.746 20.771z" fill="#ff91ab"/><path d="M340.235 164.48c-21.28-19.92-34.46-52.136-.488-96.854 34.24-45.072 82.07-54.237 118.677-47.895 9.025 1.564 16.299 8.373 18.454 17.275 8.742 36.11 2.749 84.44-39.968 121.576-42.381 36.846-75.395 25.818-96.675 5.898z" fill="#eda751"/><path d="M478.066 42.523c6.851 35.409-.576 80.781-41.155 116.059-36.735 31.937-66.426 27.899-87.545 13.286 20.569-101.187 87.678-124.67 128.7-129.345z" fill="#ff91ab"/><path d="M463.347 199.49c-4.819 88.697-93.781 122.825-200.918 117.004-107.137-5.821-191.877-49.389-187.058-138.085 4.82-88.697 95.578-155.88 202.714-150.059s190.081 82.444 185.262 171.14z" fill="#ffdc9c"/><path d="M173.158 47.518c-55.875 25.509-94.681 73.729-97.787 130.891-4.143 76.246 57.896 119.143 143.452 133.382-119.548-80.519-98.039-178.918-45.665-264.273z" opacity=".15" fill="#c17a00"/><g fill="#ff91ab"><ellipse transform="rotate(-86.887 201.977 178.029)" cx="201.977" cy="178.024" rx="28.009" ry="35.179"/><ellipse transform="rotate(93.113 392.404 188.354)" cx="392.397" cy="188.357" rx="28.009" ry="35.179"/></g><g fill="#495059"><path d="M223.986 158.729a7.5 7.5 0 01-7.496-7.906l.674-12.403c.226-4.137 3.764-7.315 7.896-7.082a7.5 7.5 0 017.082 7.895l-.674 12.403a7.5 7.5 0 01-7.482 7.093zM373.429 166.849a7.5 7.5 0 01-7.496-7.906l.674-12.403c.226-4.137 3.78-7.308 7.896-7.082a7.5 7.5 0 017.082 7.896l-.674 12.403a7.5 7.5 0 01-7.482 7.092zM299.605 172.352a33.667 33.667 0 01-26.547-12.97 7.5 7.5 0 0111.826-9.227 18.666 18.666 0 0013.707 7.169 18.68 18.68 0 0014.401-5.643 7.498 7.498 0 0110.605-.151 7.499 7.499 0 01.152 10.605 33.664 33.664 0 01-24.144 10.217zM152.642 179.568a7.5 7.5 0 01-1.413-14.866c9.776-1.886 32.853-2.355 43.966-.268a7.5 7.5 0 11-2.77 14.742c-9.061-1.702-30.263-1.307-38.355.254a7.498 7.498 0 01-1.428.138zM161.57 221.794a7.501 7.501 0 01-4.127-13.768c8.318-5.469 29.476-14.695 40.547-17.001 4.048-.839 8.026 1.759 8.871 5.814a7.502 7.502 0 01-5.814 8.872c-9.027 1.879-28.48 10.323-35.363 14.849a7.466 7.466 0 01-4.114 1.234zM442.077 195.295a7.502 7.502 0 01-2.214-.335c-7.873-2.429-28.914-5.114-38.101-4.409a7.486 7.486 0 01-8.056-6.899 7.5 7.5 0 016.899-8.056c11.272-.874 34.165 2.095 43.679 5.031a7.5 7.5 0 01-2.207 14.668zM428.634 236.305a7.469 7.469 0 01-4.771-1.716c-6.353-5.245-24.774-15.747-33.547-18.593a7.5 7.5 0 014.631-14.267c10.757 3.491 30.79 14.956 38.467 21.293a7.502 7.502 0 01-4.78 13.283z"/></g><path d="M164.291 403.677c-20.785 0-39.72-10.032-49.481-26.679-5.724-9.762-7.901-21.174-6.293-33.002 1.51-11.119 6.326-22.478 14.316-33.762 7.893-11.152 23.334-13.792 34.488-5.894 11.151 7.896 13.79 23.337 5.894 34.488-5.632 7.954-5.922 12.443-5.691 13.211.471.71 3.848 2.552 8.437 2.067 13.595-1.449 25.775 8.397 27.219 21.985 1.446 13.587-8.397 25.773-21.984 27.219a65.7 65.7 0 01-6.905.367z" fill="#eda751"/><g opacity=".07"><path d="M312.118 344.968c-25.319 12.929-56.44 19.028-68.629 19.721a42.906 42.906 0 00-2.028 13.057c0 .636.021 1.266.048 1.895 14.745-.283 51.067-6.981 80.367-22.842a43.13 43.13 0 00-9.758-11.831zM327.149 381.656c.116-1.289.185-2.591.185-3.91 0-4.37-.657-8.586-1.871-12.559-27.918 17.908-69.839 25.33-82.074 25.319a42.847 42.847 0 007.755 14.397c18.366-1.811 50.356-8.835 76.005-23.247z"/></g></svg>