<svg height="512" viewBox="0 0 128 128" width="512" xmlns="http://www.w3.org/2000/svg"><path d="M1 29.432h42v17.314H1z" fill="#ef5361"/><path d="M43 29.43v17.32H1v-2.88h38.55V29.43z" fill="#f0f5f9" opacity=".25"/><path d="M43 29.432h42v17.314H43z" fill="#ef5361"/><path d="M85 29.43v17.32H43v-3.62h39v-13.7z" fill="#f0f5f9" opacity=".25"/><path d="M85 29.432h42v17.314H85z" fill="#ef5361"/><path d="M127 29.43v17.32H85v-3.62h39v-13.7z" fill="#f0f5f9" opacity=".25"/><path d="M1 12.117h21.6v17.314H1z" fill="#ef5361"/><path d="M22.6 12.12v17.31H1v-3.289h18.23V12.12z" fill="#f0f5f9" opacity=".25"/><path d="M105.4 12.117H127v17.314h-21.6z" fill="#ef5361"/><path d="M127 12.12v17.31h-21.6v-3.15h18.45V12.12z" fill="#f0f5f9" opacity=".25"/><path d="M22.6 12.117h41.7v17.314H22.6z" fill="#ef5361"/><path d="M64.3 12.12v17.31H22.6v-3h38.6V12.12z" fill="#f0f5f9" opacity=".25"/><path d="M64.3 12.117h41.099v17.314H64.3z" fill="#ef5361"/><path d="M105.4 12.12v17.31H64.3v-3.08h38.08V12.12z" fill="#f0f5f9" opacity=".25"/><g fill="#2f3a5a"><path d="M43 47.746H1a1 1 0 01-1-1V29.432a1 1 0 011-1h42a1 1 0 011 1v17.314a1 1 0 01-1 1zm-41-2h40V30.432H2z"/><path d="M85 47.746H43a1 1 0 01-1-1V29.432a1 1 0 011-1h42a1 1 0 011 1v17.314a1 1 0 01-1 1zm-41-2h40V30.432H44z"/><path d="M127 47.746H85a1 1 0 01-1-1V29.432a1 1 0 011-1h42a1 1 0 011 1v17.314a1 1 0 01-1 1zm-41-2h40V30.432H86zM22.6 30.432H1a1 1 0 01-1-1V12.117a1 1 0 011-1h21.6a1 1 0 011 1v17.315a1 1 0 01-1 1zm-20.6-2h19.6V13.117H2z"/><path d="M127 30.432h-21.6a1 1 0 01-1-1V12.117a1 1 0 011-1H127a1 1 0 011 1v17.315a1 1 0 01-1 1zm-20.6-2H126V13.117h-19.6zM64.3 30.432H22.6a1 1 0 01-1-1V12.117a1 1 0 011-1h41.7a1 1 0 011 1v17.315a1 1 0 01-1 1zm-40.7-2h39.7V13.117H23.6z"/><path d="M105.4 30.432H64.3a1 1 0 01-1-1V12.117a1 1 0 011-1h41.1a1 1 0 011 1v17.315a1 1 0 01-1 1zm-40.1-2h39.1V13.117H65.3z"/></g><path d="M1 63.998h42v17.314H1z" fill="#ef5361"/><path d="M43 63.996v17.32H1v-2.88h38.55v-14.44z" fill="#f0f5f9" opacity=".25"/><path d="M43 63.998h42v17.314H43z" fill="#ef5361"/><path d="M85 63.996v17.32H43v-3.62h39v-13.7z" fill="#f0f5f9" opacity=".25"/><path d="M85 63.998h42v17.314H85z" fill="#ef5361"/><path d="M127 63.996v17.32H85v-3.62h39v-13.7z" fill="#f0f5f9" opacity=".25"/><path d="M1 46.684h21.6v17.314H1z" fill="#ef5361"/><path d="M22.6 46.686v17.31H1v-3.289h18.23V46.686z" fill="#f0f5f9" opacity=".25"/><path d="M105.4 46.684H127v17.314h-21.6z" fill="#ef5361"/><path d="M127 46.686v17.31h-21.6v-3.15h18.45v-14.16z" fill="#f0f5f9" opacity=".25"/><path d="M22.6 46.684h41.7v17.314H22.6z" fill="#ef5361"/><path d="M64.3 46.686v17.31H22.6v-3h38.6v-14.31z" fill="#f0f5f9" opacity=".25"/><path d="M64.3 46.684h41.099v17.314H64.3z" fill="#ef5361"/><path d="M105.4 46.686v17.31H64.3v-3.08h38.08v-14.23z" fill="#f0f5f9" opacity=".25"/><path d="M43 82.312H1a1 1 0 01-1-1V64a1 1 0 011-1h42a1 1 0 011 1v17.312a1 1 0 01-1 1zm-41-2h40V65H2z" fill="#2f3a5a"/><path d="M85 82.312H43a1 1 0 01-1-1V64a1 1 0 011-1h42a1 1 0 011 1v17.312a1 1 0 01-1 1zm-41-2h40V65H44z" fill="#2f3a5a"/><path d="M127 82.312H85a1 1 0 01-1-1V64a1 1 0 011-1h42a1 1 0 011 1v17.312a1 1 0 01-1 1zm-41-2h40V65H86zM22.6 65H1a1 1 0 01-1-1V46.684a1 1 0 011-1h21.6a1 1 0 011 1V64a1 1 0 01-1 1zM2 63h19.6V47.684H2z" fill="#2f3a5a"/><path d="M127 65h-21.6a1 1 0 01-1-1V46.684a1 1 0 011-1H127a1 1 0 011 1V64a1 1 0 01-1 1zm-20.6-2H126V47.684h-19.6zM64.3 65H22.6a1 1 0 01-1-1V46.684a1 1 0 011-1h41.7a1 1 0 011 1V64a1 1 0 01-1 1zm-40.7-2h39.7V47.684H23.6z" fill="#2f3a5a"/><path d="M105.4 65H64.3a1 1 0 01-1-1V46.684a1 1 0 011-1h41.1a1 1 0 011 1V64a1 1 0 01-1 1zm-40.1-2h39.1V47.684H65.3z" fill="#2f3a5a"/><path d="M1 98.564h42v17.314H1z" fill="#ef5361"/><path d="M43 98.563v17.32H1v-2.88h38.55v-14.44z" fill="#f0f5f9" opacity=".25"/><path d="M43 98.564h42v17.314H43z" fill="#ef5361"/><path d="M85 98.563v17.32H43v-3.62h39v-13.7z" fill="#f0f5f9" opacity=".25"/><path d="M85 98.564h42v17.314H85z" fill="#ef5361"/><path d="M127 98.563v17.32H85v-3.62h39v-13.7z" fill="#f0f5f9" opacity=".25"/><path d="M1 81.25h21.6v17.314H1z" fill="#ef5361"/><path d="M22.6 81.253v17.31H1v-3.289h18.23V81.253z" fill="#f0f5f9" opacity=".25"/><path d="M105.4 81.25H127v17.314h-21.6z" fill="#ef5361"/><path d="M127 81.253v17.31h-21.6v-3.15h18.45v-14.16z" fill="#f0f5f9" opacity=".25"/><path d="M22.6 81.25h41.7v17.314H22.6z" fill="#ef5361"/><path d="M64.3 81.253v17.31H22.6v-3h38.6v-14.31z" fill="#f0f5f9" opacity=".25"/><path d="M64.3 81.25h41.099v17.314H64.3z" fill="#ef5361"/><path d="M105.4 81.253v17.31H64.3v-3.08h38.08v-14.23z" fill="#f0f5f9" opacity=".25"/><path d="M43 116.878H1a1 1 0 01-1-1V98.564a1 1 0 011-1h42a1 1 0 011 1v17.314a1 1 0 01-1 1zm-41-2h40V99.564H2z" fill="#2f3a5a"/><path d="M85 116.878H43a1 1 0 01-1-1V98.564a1 1 0 011-1h42a1 1 0 011 1v17.314a1 1 0 01-1 1zm-41-2h40V99.564H44z" fill="#2f3a5a"/><path d="M127 116.878H85a1 1 0 01-1-1V98.564a1 1 0 011-1h42a1 1 0 011 1v17.314a1 1 0 01-1 1zm-41-2h40V99.564H86zM22.6 99.564H1a1 1 0 01-1-1V81.25a1 1 0 011-1h21.6a1 1 0 011 1v17.314a1 1 0 01-1 1zm-20.6-2h19.6V82.25H2z" fill="#2f3a5a"/><path d="M127 99.564h-21.6a1 1 0 01-1-1V81.25a1 1 0 011-1H127a1 1 0 011 1v17.314a1 1 0 01-1 1zm-20.6-2H126V82.25h-19.6zM64.3 99.564H22.6a1 1 0 01-1-1V81.25a1 1 0 011-1h41.7a1 1 0 011 1v17.314a1 1 0 01-1 1zm-40.7-2h39.7V82.25H23.6z" fill="#2f3a5a"/><path d="M105.4 99.564H64.3a1 1 0 01-1-1V81.25a1 1 0 011-1h41.1a1 1 0 011 1v17.314a1 1 0 01-1 1zm-40.1-2h39.1V82.25H65.3z" fill="#2f3a5a"/></svg>