<svg xmlns="http://www.w3.org/2000/svg" viewBox="0 0 512 512"><path fill="#90bae1" d="M0 35.31h512v441.379H0z"/><g fill="#4482c3"><path d="M512 35.31l-35.31 35.311H35.31L0 35.31zM512 476.69H0l35.31-35.311h441.38z"/></g><path fill="#285680" d="M35.31 70.621h441.379V441.38H35.31z"/><g fill="#e6e7e8"><path d="M70.621 105.931h167.724v300.138H70.621zM273.655 105.931h167.724v300.138H273.655z"/></g><g fill="#fff"><path d="M105.931 167.724a8.829 8.829 0 01-6.241-15.069L117.345 135a8.826 8.826 0 0112.482 12.482l-17.655 17.655a8.794 8.794 0 01-6.241 2.587zM105.931 220.69a8.829 8.829 0 01-6.241-15.069l61.793-61.793a8.826 8.826 0 0112.482 12.482l-61.793 61.793a8.802 8.802 0 01-6.241 2.587zM308.966 167.724a8.829 8.829 0 01-6.241-15.069L320.38 135a8.826 8.826 0 0112.482 12.482l-17.655 17.655a8.797 8.797 0 01-6.241 2.587zM308.966 220.69a8.829 8.829 0 01-6.241-15.069l61.793-61.793A8.826 8.826 0 01377 156.31l-61.793 61.793a8.805 8.805 0 01-6.241 2.587z"/></g></svg>